<?xml version="1.0" encoding="UTF-8"?>
<svg width="85px" height="113px" viewBox="0 0 85 113" version="1.1" xmlns="http://www.w3.org/2000/svg" xmlns:xlink="http://www.w3.org/1999/xlink">
    <!-- Generator: Sketch 49 (51002) - http://www.bohemiancoding.com/sketch -->
    <title>account_type</title>
    <desc>Created with Sketch.</desc>
    <defs>
        <path d="M55.6387097,3.55271368e-15 L77,21.4052863 L77,85 C77,89.418278 73.418278,93 69,93 L8,93 C3.581722,93 4.09379668e-15,89.418278 3.55271368e-15,85 L0,8 C-5.41083001e-16,3.581722 3.581722,8.11624501e-16 8,0 L55.6387097,0 Z" id="path-1"></path>
    </defs>
    <g id="Page-1" stroke="none" stroke-width="1" fill="none" fill-rule="evenodd">
        <g id="Group-3" transform="translate(-288.000000, -65.000000)">
            <g id="account_type" transform="translate(288.000000, 65.000000)">
                <g id="Combined-Shape">
                    <use fill="transparent" fill-rule="evenodd" xlink:href="#path-1"></use>
                    <path stroke="#FFF" stroke-width="3" d="M55.0164852,1.5 L8,1.5 C4.41014913,1.5 1.5,4.41014913 1.5,8 L1.5,85 C1.5,88.5898509 4.41014913,91.5 8,91.5 L69,91.5 C72.5898509,91.5 75.5,88.5898509 75.5,85 L75.5,22.0257029 L55.0164852,1.5 Z"></path>
                </g>
                <path d="M23.5715473,32.5715474 C22.7826552,32.5715474 22.1429165,33.2111078 22.1429165,34.0001782 C22.1429165,35.7331749 20.7329967,37.1430947 19,37.1430947 C17.2670033,37.1430947 15.8570834,35.7331749 15.8570834,34.0001782 C15.8570834,32.2671815 17.2670033,30.8572617 19,30.8572617 C19.7888922,30.8572617 20.4286308,30.2177012 20.4286308,29.4286308 C20.4286308,28.6395604 19.7890704,28 19,28 C15.6915355,28 13,30.6917137 13,34 C13,37.3082863 15.6917137,40 19,40 C22.3082863,40 25,37.3082863 25,34 C25.0001782,33.2111078 24.3604395,32.5715474 23.5715473,32.5715474 Z" id="Shape" fill="#FFF" fill-rule="nonzero"></path>
                <path d="M23.5715473,48.5715474 C22.7826552,48.5715474 22.1429165,49.2111078 22.1429165,50.0001782 C22.1429165,51.7331749 20.7329967,53.1430947 19,53.1430947 C17.2670033,53.1430947 15.8570834,51.7331749 15.8570834,50.0001782 C15.8570834,48.2671815 17.2670033,46.8572617 19,46.8572617 C19.7888922,46.8572617 20.4286308,46.2177012 20.4286308,45.4286308 C20.4286308,44.6395604 19.7890704,44 19,44 C15.6915355,44 13,46.6917137 13,50 C13,53.3082863 15.6917137,56 19,56 C22.3082863,56 25,53.3082863 25,50 C25.0001782,49.211286 24.3604395,48.5715474 23.5715473,48.5715474 Z" id="Shape" fill="#FFF" fill-rule="nonzero"></path>
                <path d="M39.6267195,52 L29.3732805,52 C28.6149528,52 28,52.6715105 28,53.5 C28,54.3284895 28.6147815,55 29.3732805,55 L39.6267195,55 C40.3850472,55 41,54.3284895 41,53.5 C41,52.6715105 40.3852185,52 39.6267195,52 Z" id="Shape" fill="#FFF" fill-rule="nonzero"></path>
                <path d="M39.6267195,46 L29.3732805,46 C28.6149528,46 28,46.6715105 28,47.5 C28,48.3284895 28.6147815,49 29.3732805,49 L39.6267195,49 C40.3850472,49 41,48.3284895 41,47.5 C41,46.6715105 40.3852185,46 39.6267195,46 Z" id="Shape" fill="#FFF" fill-rule="nonzero"></path>
                <path d="M36.6363327,68 L29.3636673,68 C28.6106481,68 28,68.6715105 28,69.5 C28,70.3284895 28.610478,71 29.3636673,71 L36.6363327,71 C37.3893519,71 38,70.3284895 38,69.5 C38,68.6715105 37.3893519,68 36.6363327,68 Z" id="Shape" fill="#FFF" fill-rule="nonzero"></path>
                <path d="M39.6267195,62 L29.3732805,62 C28.6149528,62 28,62.6715105 28,63.5 C28,64.3284895 28.6147815,65 29.3732805,65 L39.6267195,65 C40.3850472,65 41,64.3284895 41,63.5 C41,62.6715105 40.3852185,62 39.6267195,62 Z" id="Shape" fill="#FFF" fill-rule="nonzero"></path>
                <path d="M53.5840421,35 L29.4161346,35 C28.6341428,35 28,35.6715105 28,36.5 C28,37.3284895 28.6339662,38 29.4161346,38 L53.5838654,38 C54.3658572,38 55,37.3284895 55,36.5 C55,35.6715105 54.3660338,35 53.5840421,35 Z" id="Shape" fill="#FFF" fill-rule="nonzero"></path>
                <path d="M47.581038,29 L29.418962,29 C28.6354089,29 28,29.6715105 28,30.5 C28,31.3284895 28.6352319,32 29.418962,32 L47.581038,32 C48.3645911,32 49,31.3284895 49,30.5 C49,29.6715105 48.3647681,29 47.581038,29 Z" id="Shape" fill="#FFF" fill-rule="nonzero"></path>
                <path d="M23.5715473,65.5715474 C22.7826552,65.5715474 22.1429165,66.2111078 22.1429165,67.0001782 C22.1429165,68.7331749 20.7329967,70.1430947 19,70.1430947 C17.2670033,70.1430947 15.8570834,68.7331749 15.8570834,67.0001782 C15.8570834,65.2671815 17.2670033,63.8572617 19,63.8572617 C19.7888922,63.8572617 20.4286308,63.2177012 20.4286308,62.4286308 C20.4286308,61.6395604 19.7890704,61 19,61 C15.6915355,61 13,63.6917137 13,67 C13,70.3082863 15.6917137,73 19,73 C22.3082863,73 25,70.3082863 25,67 C25.0001782,66.2111078 24.3604395,65.5715474 23.5715473,65.5715474 Z" id="Shape" fill="#FFF" fill-rule="nonzero"></path>
                <path d="M80.4362088,80.3890384 C79.1476598,80.2594027 77.8598025,80.627896 76.8405155,81.4086762 C76.0285792,80.0341542 74.6440505,79.0590078 73.0421407,78.897094 C71.7532459,78.7676328 70.4655615,79.1361262 69.4464474,79.9167318 C68.6345111,78.5422098 67.2499824,77.5670634 65.6480727,77.4051497 C64.6640646,77.3060473 63.6814401,77.497273 62.8179687,77.9406166 L62.8179687,60.128012 C62.8179687,58.6817804 62.208195,57.295394 61.1444633,56.324435 C60.0817692,55.3543484 58.649683,54.8808205 57.2151757,55.0256356 C54.6558902,55.2842091 52.6512116,57.6188725 52.6512116,60.3408727 L52.6512116,78.1984921 L48.5757927,82.3101937 C46.4101104,84.4951567 45.535917,87.5952464 46.2375199,90.6032128 L49.3315247,103.869845 C50.5851406,109.245625 55.2836492,113 60.7574317,113 L73.2619429,113 C79.73426,113 85,107.687555 85,101.157441 L85,85.7046244 C85.0001729,82.9822753 82.9954944,80.6476118 80.4362088,80.3890384 Z" id="Shape" fill="#009ADE" fill-rule="nonzero"></path>
                <path d="M55,22.1036865 L69.3277341,22.1036865 C72.6414426,22.1036865 75.3277341,19.417395 75.3277341,16.1036865 L75.3277341,1" id="Path-2" stroke="#FFF" stroke-width="3" transform="translate(65.163867, 11.551843) scale(-1, 1) translate(-65.163867, -11.551843) "></path>
            </g>
        </g>
    </g>
</svg>