<?xml version="1.0" encoding="UTF-8"?>
<svg width="16px" height="16px" viewBox="0 0 16 16" version="1.1" xmlns="http://www.w3.org/2000/svg" xmlns:xlink="http://www.w3.org/1999/xlink">
    <defs></defs>
    <g id="16" stroke="none" stroke-width="1" fill="none" fill-rule="evenodd">
        <g id="Icons/16/Config">
            <rect id="Rectangle" x="0" y="0" width="16" height="16"></rect>
            <g id="Group-35" transform="translate(1.000000, 1.000000)" fill-rule="nonzero" fill="#FFF">
                <path d="M12.1629692,5.803 L13.269,5.803 C13.759,5.803 14.157,6.2 14.157,6.69 L14.157,8.021 C14.157,8.511 13.76,8.909 13.269,8.909 L12.1623344,8.909 C12.0733904,9.1890569 11.961047,9.45868855 11.8276009,9.71560092 L12.61,10.498 C12.958,10.846 12.958,11.406 12.61,11.753 L11.67,12.694 C11.323,13.04 10.762,13.04 10.415,12.694 L9.63150084,11.9105008 C9.37429713,12.0439337 9.10436282,12.1562316 8.824,12.2450949 L8.824,13.353 C8.824,13.843 8.428,14.24 7.937,14.24 L6.606,14.24 C6.116,14.24 5.719,13.844 5.719,13.353 L5.719,12.2447475 C5.43898944,12.1559156 5.16939609,12.0437007 4.91251226,11.9103954 L4.129,12.694 C3.782,13.041 3.221,13.041 2.874,12.694 L1.933,11.753 C1.587,11.407 1.587,10.846 1.933,10.498 L2.71660464,9.71448774 C2.58345797,9.45790973 2.47135166,9.18865244 2.38256984,8.909 L1.273,8.909 C0.784,8.909 0.386,8.512 0.386,8.021 L0.386,6.69 C0.386,6.201 0.783,5.803 1.273,5.803 L2.38193535,5.803 C2.47081031,5.52265339 2.58312288,5.25274443 2.71657308,4.99557308 L1.933,4.212 C1.587,3.865 1.587,3.305 1.933,2.957 L2.874,2.017 C3.221,1.67 3.781,1.67 4.129,2.017 L4.91191475,2.79991475 C5.16897803,2.66647329 5.43877233,2.55415332 5.719,2.46525249 L5.719,1.357 C5.719,0.867 6.115,0.47 6.606,0.47 L7.937,0.47 C8.427,0.47 8.824,0.866 8.824,1.357 L8.824,2.46490509 C9.10457997,2.55383724 9.37471527,2.66624023 9.63209845,2.79980924 L10.415,2.017 C10.762,1.67 11.322,1.67 11.67,2.017 L12.61,2.957 C12.957,3.305 12.957,3.865 12.61,4.212 L11.8276325,4.9944598 C11.9613824,5.25196545 12.0739321,5.52224883 12.1629692,5.803 Z M4.286,7.355 C4.286,9.004 5.623,10.342 7.272,10.341 C8.919,10.341 10.256,9.003 10.256,7.355 C10.256,5.706 8.919,4.369 7.272,4.369 C5.623,4.369 4.286,5.706 4.286,7.355 Z M5.703,7.355 C5.703,6.489 6.405,5.786 7.272,5.786 C8.137,5.786 8.839,6.489 8.839,7.355 C8.839,8.221 8.137,8.923 7.272,8.923 C6.405,8.924 5.703,8.222 5.703,7.355 Z" id="Combined-Shape"></path>
            </g>
        </g>
    </g>
</svg>