<?xml version="1.0" encoding="UTF-8"?>
<svg width="16px" height="16px" viewBox="0 0 16 16" version="1.1" xmlns="http://www.w3.org/2000/svg" xmlns:xlink="http://www.w3.org/1999/xlink">
    <!-- Generator: Sketch 48.2 (47327) - http://www.bohemiancoding.com/sketch -->
    <title>Icons/24/export</title>
    <desc>Created with Sketch.</desc>
    <defs></defs>
    <g id="16" stroke="none" stroke-width="1" fill="none" fill-rule="evenodd">
        <g id="Icons/24/export">
            <rect id="Rectangle" x="0" y="0" width="16" height="16"></rect>
            <path d="M14.3625059,4.97583501 L12.7613103,2.96697119 C12.6100687,2.77721115 12.380592,2.66666667 12.1379344,2.66666667 L3.8620438,2.66666667 C3.61938624,2.66666667 3.38993128,2.77718936 3.2386897,2.9669494 L1.63747227,4.97583501 C1.47017407,5.18568216 1.33333333,5.57698871 1.33333333,5.84535428 L1.33333333,12.7783059 C1.33333333,13.3286536 1.77945461,13.7747749 2.32980229,13.7747749 L13.6701759,13.7747749 C14.2205454,13.7747749 14.6666449,13.3286318 14.6666667,12.7783059 L14.6666667,5.84535428 C14.6666449,5.57698871 14.5298041,5.18568216 14.3625059,4.97583501 Z M2.16076118,4.95881978 L2.69099996,4.29354854 L6.30888076,4.29354854 L6.66589543,3.70655604 L3.15888591,3.70655604 L3.55036675,3.21540215 C3.62644505,3.11997747 3.74003964,3.06524989 3.8620438,3.06524989 L12.1379344,3.06524989 C12.2599821,3.06524989 12.3735549,3.11997747 12.449655,3.21540215 L12.8411141,3.70655604 L9.27162102,3.70655604 L9.47090174,4.29354854 L13.3089783,4.29354854 L13.8392388,4.95881978 L2.16076118,4.95881978 Z M10.8989659,8.84782408 C11.1447973,9.09191203 11.1447973,9.49029844 10.8989659,9.73787336 L8.61848699,12.0174805 C8.49644301,12.1403962 8.33517062,12.2022899 8.17476996,12.2022899 C8.01349756,12.2022899 7.85222517,12.1403962 7.73018119,12.0174805 L5.42965223,9.71782328 C5.18382079,9.4711201 5.18382079,9.07273369 5.42965223,8.827774 C5.67461193,8.58194256 6.07299834,8.58194256 6.31882977,8.827774 L7.54537174,10.054316 L7.54537174,6.92127273 C7.54537174,6.57257566 7.82694463,6.29100277 8.17476996,6.29100277 C8.52172355,6.29100277 8.80329644,6.5734474 8.80329644,6.92127273 L8.80329644,10.054316 L10.0097883,8.84782408 C10.2556198,8.60199264 10.6540062,8.60199264 10.8989659,8.84782408 Z" id="Shape" fill="#FFF" fill-rule="nonzero"></path>
        </g>
    </g>
</svg>