<?xml version="1.0" encoding="UTF-8"?>
<svg width="24px" height="24px" viewBox="0 0 24 24" version="1.1" xmlns="http://www.w3.org/2000/svg" xmlns:xlink="http://www.w3.org/1999/xlink">
    <!-- Generator: Sketch 46.2 (44496) - http://www.bohemiancoding.com/sketch -->
    <title>Icons/24/Report Columns</title>
    <desc>Created with Sketch.</desc>
    <defs></defs>
    <g id="24" stroke="none" stroke-width="1" fill="none" fill-rule="evenodd">
        <g id="Icons/24/Report-Columns">
            <rect id="Rectangle" x="0" y="0" width="24" height="24"></rect>
            <g id="Group" transform="translate(4.000000, 1.000000)">
                <path d="M3.75878906,3 L1.87939453,3 L1.87939453,3 C0.841433593,3 9.49310508e-17,3.84143359 2.22044605e-16,4.87939453 L0,18.4394531 L0,18.4394531 C2.02906125e-16,20.0963074 1.34314575,21.4394531 3,21.4394531 L13.1542969,21.4394531 L13.1542969,21.4394531 C14.8111511,21.4394531 16.1542969,20.0963074 16.1542969,18.4394531 L16.1542969,5.10839844 L16.1542969,5.10839844 C16.1542969,3.94396213 15.2103347,3 14.0458984,3 L11.9375,3" id="Path-2" stroke="#FFF" stroke-width="2"></path>
                <polyline id="Path-10" stroke="#FFF" points="2.32568359 10.2329102 3.97509766 12.5478516 7.54052734 9.00488281"></polyline>
                <path d="M8.38183594,10.5 L13.5966797,10.5" id="Path-2" stroke="#FFF"></path>
                <polyline id="Path-10" stroke="#FFF" points="2.32568359 15.2329102 3.97509766 17.5478516 7.54052734 14.0048828"></polyline>
                <path d="M8.38183594,15.5 L13.5966797,15.5" id="Path-2" stroke="#FFF"></path>
                <path d="M6,0 L10,0 L10,0 C10.5522847,-1.01453063e-16 11,0.44771525 11,1 L11,5 L5,5 L5,1 L5,1 C5,0.44771525 5.44771525,1.01453063e-16 6,0 Z" id="Rectangle-2" fill="#FFF"></path>
                <path d="M3.06884766,6 L12.6130637,6" id="Path-3" stroke="#FFF" stroke-width="2"></path>
            </g>
        </g>
    </g>
</svg>