<?xml version="1.0" encoding="UTF-8"?>
<svg width="24px" height="24px" viewBox="0 0 24 24" version="1.1" xmlns="http://www.w3.org/2000/svg" xmlns:xlink="http://www.w3.org/1999/xlink">
    <defs></defs>
    <g id="24" stroke="none" stroke-width="1" fill="none" fill-rule="evenodd">
        <g id="Icons/24/Notes">
            <rect id="Rectangle" x="0" y="0" width="24" height="24"></rect>
            <g id="Group-48" transform="translate(3.000000, 2.000000)" fill-rule="nonzero" fill="#FFF">
                <path d="M17.064,5.77466667 C17.0693333,5.468 16.9573333,5.15733333 16.7226667,4.92266667 L13.032,1.23333333 C12.8826667,1.08133333 12.696,0.997333333 12.504,0.945333333 C12.3626667,0.885333333 12.2066667,0.853333333 12.044,0.853333333 L2.384,0.853333333 C1.21333333,0.853333333 0.258666667,1.80666667 0.258666667,2.97733333 L0.258666667,17.6773333 C0.258666667,18.8493333 1.21333333,19.8026667 2.384,19.8026667 L14.9866667,19.8026667 C16.1586667,19.8026667 17.112,18.8493333 17.112,17.6773333 L17.112,6.01333333 C17.1133333,5.928 17.0813333,5.85466667 17.064,5.77466667 L17.064,5.77466667 Z M11.9973333,3.53066667 L14.4146667,5.95066667 L11.9973333,5.95066667 L11.9973333,3.53066667 Z M4.22933333,10.6466667 C4.22933333,11.1986667 4.67733333,11.6466667 5.22933333,11.6466667 L12.368,11.6466667 C12.92,11.6466667 13.368,11.1986667 13.368,10.6466667 C13.368,10.0946667 12.92,9.64666667 12.368,9.64666667 L5.22933333,9.64666667 C4.67733333,9.64666667 4.22933333,10.0946667 4.22933333,10.6466667 Z M14.752,17.444 L2.61866667,17.444 L2.61866667,3.212 L9.996,3.212 L9.996,7.952 L14.7506667,7.952 L14.7506667,17.444 L14.752,17.444 Z M12.3653333,13.42 L5.228,13.42 C4.676,13.42 4.228,13.868 4.228,14.42 C4.228,14.972 4.676,15.42 5.228,15.42 L12.3653333,15.42 C12.9173333,15.42 13.3653333,14.972 13.3653333,14.42 C13.3653333,13.868 12.9173333,13.42 12.3653333,13.42 Z M5.264,7.87466667 L7.376,7.87466667 C7.928,7.87466667 8.376,7.42666667 8.376,6.87466667 C8.376,6.32266667 7.928,5.87466667 7.376,5.87466667 L5.264,5.87466667 C4.712,5.87466667 4.264,6.32266667 4.264,6.87466667 C4.264,7.42666667 4.712,7.87466667 5.264,7.87466667 Z" id="Combined-Shape"></path>
            </g>
        </g>
    </g>
</svg>