<?xml version="1.0" encoding="UTF-8"?>
<svg width="16px" height="16px" viewBox="0 0 16 16" version="1.1" xmlns="http://www.w3.org/2000/svg" xmlns:xlink="http://www.w3.org/1999/xlink">
    <defs></defs>
    <g id="16" stroke="none" stroke-width="1" fill="none" fill-rule="evenodd">
        <g id="Icons/16/Template">
            <rect id="Rectangle" x="0" y="0" width="16" height="16"></rect>
            <g id="Group-48" transform="translate(2.000000, 1.000000)" fill="#fff">
                <path d="M12.798,4.331 C12.802,4.101 12.718,3.868 12.542,3.692 L9.774,0.925 C9.662,0.811 9.522,0.748 9.378,0.709 C9.272,0.664 9.155,0.64 9.033,0.64 L1.788,0.64 C0.91,0.64 0.194,1.355 0.194,2.233 L0.194,13.258 C0.194,14.137 0.91,14.852 1.788,14.852 L11.24,14.852 C12.119,14.852 12.834,14.137 12.834,13.258 L12.834,4.51 C12.835,4.446 12.811,4.391 12.798,4.331 L12.798,4.331 Z M8.998,2.648 L10.811,4.463 L8.998,4.463 L8.998,2.648 Z M11.064,13.083 L1.964,13.083 L1.964,2.409 L7.497,2.409 L7.497,5.964 L11.063,5.964 L11.063,13.083 L11.064,13.083 Z" id="Shape" fill-rule="nonzero"></path>
                <polygon id="T" points="4.53090125 12.1593132 4.53090125 7.87278968 3 7.87278968 3 7 7.0999999 7 7.0999999 7.87278968 5.57261797 7.87278968 5.57261797 12.1593132"></polygon>
            </g>
        </g>
    </g>
</svg>