<?xml version="1.0" encoding="UTF-8"?>
<svg width="24px" height="24px" viewBox="0 0 24 24" version="1.1" xmlns="http://www.w3.org/2000/svg" xmlns:xlink="http://www.w3.org/1999/xlink">
    <!-- Generator: Sketch 46.2 (44496) - http://www.bohemiancoding.com/sketch -->
    <title>Icons/24/admin</title>
    <desc>Created with Sketch.</desc>
    <defs></defs>
    <g id="Tree-Icons" stroke="none" stroke-width="1" fill="none" fill-rule="evenodd">
        <g id="Icons/24/admin">
            <rect id="Rectangle" x="0" y="0" width="24" height="24"></rect>
            <g id="Group" transform="translate(6.000000, 4.000000)" fill="#454545">
                <path d="M11.74976,9.861888 L11.74976,13.598848 C11.74976,14.747648 10.81856,15.678848 9.66976,15.678848 L2.08064,15.678848 C0.9312,15.678848 0,14.747648 0,13.598848 L0,9.861888 C0,8.713088 0.9312,7.781888 2.08064,7.781888 L9.66976,7.781888 C10.81856,7.781888 11.74976,8.713088 11.74976,9.861888 Z M4.192256,15.582528 L7.557376,15.582528 L5.874816,9.763648 L4.192256,15.582528 Z" id="Combined-Shape"></path>
                <path d="M2.69664,3.0816 C2.69664,1.3792 4.07648,0 5.77824,0 C7.48064,0 8.86048,1.3792 8.86048,3.0816 C8.86048,4.784 7.48064,6.1632 5.77824,6.1632 C4.07648,6.1632 2.69664,4.784 2.69664,3.0816 Z" id="Stroke-97"></path>
            </g>
        </g>
    </g>
</svg>