<?xml version="1.0" encoding="UTF-8"?>
<svg width="16px" height="16px" viewBox="0 0 16 16" version="1.1" xmlns="http://www.w3.org/2000/svg" xmlns:xlink="http://www.w3.org/1999/xlink">
    <defs></defs>
    <g id="16" stroke="none" stroke-width="1" fill="none" fill-rule="evenodd">
        <g id="Icons/16/WiFi">
            <rect id="Rectangle" x="0" y="0" width="16" height="16"></rect>
            <g id="Group-53" transform="translate(2.000000, 3.000000)" fill-rule="nonzero" fill="#FFF">
                <path d="M12.531,3.167 C11.049,1.438 8.898,0.445 6.629,0.445 C4.36,0.445 2.209,1.437 0.727,3.167 C0.426,3.518 0.446,4.041 0.773,4.368 L3.073,6.669 L6.004,9.598 C6.176,9.771 6.402,9.857 6.629,9.857 C6.856,9.857 7.082,9.771 7.254,9.598 L10.184,6.669 L12.485,4.368 C12.812,4.041 12.832,3.518 12.531,3.167 L12.531,3.167 Z M6.629,7.722 L4.932,6.025 C5.058,5.923 5.192,5.832 5.333,5.754 C5.429,5.703 5.53,5.663 5.631,5.624 C5.677,5.605 5.722,5.588 5.768,5.571 C6.323,5.394 6.935,5.395 7.491,5.573 C7.535,5.588 7.578,5.604 7.621,5.622 C7.725,5.661 7.827,5.702 7.925,5.754 C8.066,5.832 8.2,5.924 8.326,6.025 L6.629,7.722 Z M9.587,4.764 C9.583,4.761 9.579,4.758 9.575,4.755 C9.395,4.598 9.201,4.46 9,4.334 C8.952,4.303 8.903,4.274 8.853,4.246 C8.657,4.133 8.455,4.032 8.245,3.949 C8.232,3.943 8.22,3.936 8.206,3.931 C7.985,3.847 7.755,3.787 7.522,3.74 C7.465,3.727 7.408,3.718 7.35,3.708 C7.113,3.669 6.873,3.641 6.629,3.641 C6.385,3.641 6.145,3.669 5.907,3.708 C5.85,3.718 5.793,3.728 5.736,3.74 C5.503,3.788 5.273,3.847 5.051,3.932 C5.038,3.936 5.027,3.943 5.014,3.949 C4.803,4.031 4.6,4.133 4.404,4.247 C4.355,4.274 4.306,4.303 4.258,4.333 C4.057,4.459 3.863,4.597 3.683,4.755 C3.679,4.758 3.674,4.761 3.67,4.764 L2.642,3.735 C3.736,2.761 5.15,2.215 6.629,2.215 C8.108,2.215 9.522,2.761 10.616,3.735 L9.587,4.764 Z" id="Shape"></path>
            </g>
        </g>
    </g>
</svg>