<?xml version="1.0" encoding="UTF-8"?>
<svg width="32px" height="32px" viewBox="0 0 32 32" version="1.1" xmlns="http://www.w3.org/2000/svg" xmlns:xlink="http://www.w3.org/1999/xlink">
    <defs></defs>
    <g id="Side-Navigation-Fix-Wireless-32" stroke="none" stroke-width="1" fill="none" fill-rule="evenodd">
        <g id="Icons/32/Manage_hover">
            <rect id="Rectangle" fill-opacity="0" fill="#FFFFFF" x="0" y="0" width="32" height="32"></rect>
            <g id="Manage" transform="translate(5.000000, 4.000000)" stroke="#FFF" stroke-width="1.2" stroke-linecap="round" stroke-linejoin="round">
                <path d="M2.627826,19.2072291 C3.14622962,18.6099336 4.05078468,18.5450915 4.64841484,19.0625814 C5.24666884,19.5806947 5.31092344,20.4847433 4.79314365,21.0820389 C4.27536386,21.6799579 3.37018498,21.7441765 2.77255481,21.2266866 C2.17430081,20.7091968 2.10942238,19.8045247 2.627826,19.2072291 Z" id="Stroke-519"></path>
                <path d="M21.2985909,4.87718623 L17.9430036,8.74838462 C17.5294036,9.22597166 16.8063833,9.27709717 16.3291526,8.86372874 L13.0172334,5.99571255 C12.5393788,5.58234413 12.4876008,4.86035223 12.9018247,4.38338866 L16.2636503,0.505331984 C14.2542904,0.216036437 12.1444938,0.918700405 10.7159206,2.56593927 C9.22122136,4.29048988 8.85877551,6.60547773 9.55185183,8.61807692 L1.10580296,18.3606032 C0.0103555958,19.6250243 0.1469746,21.5378664 1.41210401,22.6327004 C2.67660959,23.7281579 4.59052332,23.5909919 5.68659451,22.3271943 L14.0883514,12.6345466 C16.2162392,13.0878178 18.5181758,12.4019879 20.0434428,10.6431457 C21.4676491,9.00027126 21.8644057,6.81995547 21.2985909,4.87718623 Z" id="Stroke-520"></path>
            </g>
        </g>
    </g>
</svg>