<?xml version="1.0" encoding="UTF-8"?>
<svg width="16px" height="16px" viewBox="0 0 16 16" version="1.1" xmlns="http://www.w3.org/2000/svg" xmlns:xlink="http://www.w3.org/1999/xlink">
    <!-- Generator: Sketch 48.2 (47327) - http://www.bohemiancoding.com/sketch -->
    <title>Icons/24/import</title>
    <desc>Created with Sketch.</desc>
    <defs></defs>
    <g id="16" stroke="none" stroke-width="1" fill="none" fill-rule="evenodd">
        <g id="Icons/24/import">
            <rect id="Rectangle" x="0" y="0" width="16" height="16"></rect>
            <path d="M14.3625059,4.97583501 L12.7613103,2.96697119 C12.6100687,2.77721115 12.380592,2.66666667 12.1379344,2.66666667 L3.8620438,2.66666667 C3.61938624,2.66666667 3.38993128,2.77718936 3.2386897,2.9669494 L1.63747227,4.97583501 C1.47017407,5.18568216 1.33333333,5.57698871 1.33333333,5.84535428 L1.33333333,12.7783059 C1.33333333,13.3286536 1.77945461,13.7747749 2.32980229,13.7747749 L13.6701759,13.7747749 C14.2205454,13.7747749 14.6666449,13.3286318 14.6666667,12.7783059 L14.6666667,5.84535428 C14.6666449,5.57698871 14.5298041,5.18568216 14.3625059,4.97583501 Z M2.16076118,4.95881978 L2.69099996,4.29354854 L6.30888076,4.29354854 L6.66589543,3.70655604 L3.15888591,3.70655604 L3.55036675,3.21540215 C3.62644505,3.11997747 3.74003964,3.06524989 3.8620438,3.06524989 L12.1379344,3.06524989 C12.2599821,3.06524989 12.3735549,3.11997747 12.449655,3.21540215 L12.8411141,3.70655604 L9.27162102,3.70655604 L9.47090174,4.29354854 L13.3089783,4.29354854 L13.8392388,4.95881978 L2.16076118,4.95881978 Z M10.8933867,9.59211799 C10.648427,9.83794942 10.2500406,9.83794942 10.0042092,9.59211799 L8.79771729,8.3856261 L8.79771729,11.5186693 C8.79771729,11.8664947 8.5161444,12.1489393 8.16919081,12.1489393 C7.82136547,12.1489393 7.53979259,11.8673664 7.53979259,11.5186693 L7.53979259,8.3856261 L6.31325062,9.61216807 C6.06741918,9.85799951 5.66903277,9.85799951 5.42407308,9.61216807 C5.17824164,9.36720837 5.17824164,8.96882196 5.42407308,8.72211878 L7.72460204,6.42246157 C7.84664601,6.29954585 8.00791841,6.23765212 8.16919081,6.23765212 C8.32959146,6.23765212 8.49086386,6.29954585 8.61290784,6.42246157 L10.8933867,8.7020687 C11.1392182,8.94964362 11.1392182,9.34803003 10.8933867,9.59211799 Z" id="Shape" fill="#FFF" fill-rule="nonzero"></path>
        </g>
    </g>
</svg>